<svg width="19" height="22" viewBox="0 0 19 22" fill="none" xmlns="http://www.w3.org/2000/svg">
<path d="M15.5859 20.5722C14.4306 21.6922 13.1691 21.5154 11.9548 20.9849C10.6697 20.4426 9.49079 20.419 8.135 20.9849C6.43732 21.7158 5.54132 21.5036 4.52742 20.5722C-1.22584 14.6422 -0.376997 5.61143 6.15437 5.28133C7.74595 5.36385 8.85416 6.15375 9.78553 6.22448C11.1767 5.94154 12.5089 5.12806 13.9944 5.23417C15.7746 5.37564 17.1186 6.08301 18.0028 7.35627C14.3245 9.5609 15.1969 14.4064 18.5687 15.7622C17.8967 17.5306 17.0243 19.2872 15.5742 20.584L15.5859 20.5722ZM9.66763 5.21059C9.49079 2.58154 11.6247 0.412283 14.0769 0.200073C14.4188 3.24175 11.3182 5.50533 9.66763 5.21059Z" fill="white"/>
</svg>
