<svg width="7" height="12" viewBox="0 0 7 12" fill="none" xmlns="http://www.w3.org/2000/svg">
<path d="M5.86052 0.818275L5.77424 1.02623L5.86052 0.818275C5.78808 0.788217 5.71028 0.773399 5.63175 0.774968C5.55322 0.776538 5.47609 0.794453 5.40491 0.827329C5.33417 0.860001 5.27101 0.906655 5.2187 0.964056L0.935969 5.58562L0.935964 5.58562C0.831573 5.69828 0.774855 5.8471 0.774855 6C0.774855 6.1529 0.831573 6.30172 0.935964 6.41438L0.935969 6.41438L5.21779 11.0349C5.21809 11.0353 5.21838 11.0356 5.21867 11.0359C5.27098 11.0933 5.33416 11.14 5.40491 11.1727C5.47609 11.2055 5.55322 11.2235 5.63175 11.225C5.71028 11.2266 5.78808 11.2118 5.86052 11.1817L5.77424 10.9738L5.86052 11.1817C5.93293 11.1517 5.99821 11.1072 6.05287 11.0513C6.10751 10.9955 6.15049 10.9294 6.17985 10.8573C6.20921 10.7851 6.22451 10.7079 6.22513 10.6301C6.22574 10.5523 6.21166 10.4749 6.18347 10.4023L5.97359 10.4837L6.18347 10.4023C6.15544 10.33 6.11386 10.2637 6.0606 10.2072C6.06029 10.2068 6.05999 10.2065 6.05968 10.2062L2.16149 6L6.06062 1.79282C6.11386 1.73632 6.15544 1.66995 6.18347 1.59774L5.97359 1.51626L6.18347 1.59774C6.21166 1.52513 6.22574 1.44772 6.22513 1.36989C6.22451 1.29206 6.20921 1.21488 6.17985 1.14272C6.15049 1.07055 6.10751 1.0045 6.05287 0.948684C5.99821 0.892841 5.93293 0.84832 5.86052 0.818275Z" fill="white" stroke="white" stroke-width="0.450289"/>
</svg>
