<svg width="7" height="12" viewBox="0 0 7 12" fill="none" xmlns="http://www.w3.org/2000/svg">
<path d="M6.06403 6.41438L6.06404 6.41438C6.16843 6.30172 6.22514 6.1529 6.22514 6C6.22514 5.8471 6.16843 5.69828 6.06404 5.58562L6.06403 5.58562L1.78221 0.965055C1.78191 0.964732 1.78162 0.96441 1.78133 0.964088C1.72902 0.906672 1.66584 0.860006 1.59509 0.827328C1.52391 0.794453 1.44678 0.776538 1.36825 0.774968C1.28972 0.773398 1.21192 0.788215 1.13948 0.818275C1.06707 0.84832 1.00179 0.892838 0.947127 0.948685C0.892489 1.0045 0.849505 1.07055 0.820145 1.14272C0.790791 1.21488 0.77549 1.29206 0.774874 1.36989C0.774259 1.44772 0.788335 1.52513 0.816527 1.59774C0.844562 1.66995 0.886145 1.73634 0.9394 1.79284C0.939706 1.79316 0.940013 1.79349 0.94032 1.79381L4.83851 6L0.939378 10.2072C0.886134 10.2637 0.844559 10.3301 0.816527 10.4023C0.788335 10.4749 0.774259 10.5523 0.774874 10.6301C0.77549 10.7079 0.790791 10.7851 0.820145 10.8573C0.849506 10.9294 0.89249 10.9955 0.947128 11.0513C1.00179 11.1072 1.06707 11.1517 1.13948 11.1817C1.21192 11.2118 1.28972 11.2266 1.36825 11.225C1.44678 11.2235 1.52391 11.2055 1.59509 11.1727C1.66583 11.14 1.72899 11.0933 1.7813 11.0359L6.06403 6.41438Z" fill="white" stroke="white" stroke-width="0.450289"/>
</svg>
