<svg width="15" height="14" viewBox="0 0 15 14" fill="none" xmlns="http://www.w3.org/2000/svg">
<path d="M14.6856 0.321199C14.2687 -0.0929084 13.5953 -0.0929084 13.1784 0.321199L7.95129 5.50285L2.72417 0.31058C2.30728 -0.103527 1.63385 -0.103527 1.21696 0.31058C0.800075 0.724687 0.800075 1.39363 1.21696 1.80774L6.44408 7L1.21696 12.1923C0.800075 12.6064 0.800075 13.2753 1.21696 13.6894C1.63385 14.1035 2.30728 14.1035 2.72417 13.6894L7.95129 8.49716L13.1784 13.6894C13.5953 14.1035 14.2687 14.1035 14.6856 13.6894C15.1025 13.2753 15.1025 12.6064 14.6856 12.1923L9.45849 7L14.6856 1.80774C15.0918 1.40425 15.0918 0.724687 14.6856 0.321199Z" fill="white"/>
</svg>
